PathFileType	4	(X/Y/Z)	pose_F01_0-94.trc
DataRate	CameraRate	NumFrames	NumMarkers	Units	OrigDataRate	OrigDataStartFrame	OrigNumFrames
30	30	11	21	m	30	56	94
Frame#	Time	CHip			RHip			RKnee			RAnkle			RBigToe			RSmallToe			RHeel			LHip			LKnee			LAnkle			LBigToe			LSmallToe			LHeel			Neck			Nose			RShoulder			RElbow			RWrist			LShoulder			LElbow			LWrist			
		X1	Y1	Z1	X2	Y2	Z2	X3	Y3	Z3	X4	Y4	Z4	X5	Y5	Z5	X6	Y6	Z6	X7	Y7	Z7	X8	Y8	Z8	X9	Y9	Z9	X10	Y10	Z10	X11	Y11	Z11	X12	Y12	Z12	X13	Y13	Z13	X14	Y14	Z14	X15	Y15	Z15	X16	Y16	Z16	X17	Y17	Z17	X18	Y18	Z18	X19	Y19	Z19	X20	Y20	Z20	X21	Y21	Z21	
56	1.8666666666666667	-0.19873188543426207	1.8463272616862358	-0.4424388945801244	-0.21208528350657216	1.84470228393889	-0.3904880701577114																-0.18751658218321945	1.8477308316776242	-0.49522772862019643	-0.19060205021096627	1.727800820537955	-0.4686344314839492													-0.18973153557728004	1.9726085845612027	-0.4304358463945603	-0.19379114932932148	2.0234339495535254	-0.44691417374862	-0.20248349231899132	1.9713097059826876	-0.35320422451347216	-0.22548056339217654	1.929781038768432	-0.2726665970441225	-0.21038507762998065	1.9655454911781962	-0.3040321780119613	-0.17235462433864457	1.9752097274486757	-0.5065816406167944	-0.14921761601886618	1.9561397367707294	-0.6146332087885107	-0.173597416417865	2.000760987067644	-0.6012670724596868
57	1.9	-0.1977279797341631	1.8445945972931543	-0.4475603388474563	-0.2100716297212845	1.8407902768185813	-0.39221200607279094																-0.18668857255543908	1.8474802680897187	-0.5005858365008793	-0.19172891613142773	1.7266234091054162	-0.4714472264577453													-0.18782379208819516	1.9703136474438963	-0.43211400283728796	-0.19099057793309812	2.020675308676484	-0.4453443261755356	-0.20157984431506282	1.9698987606942384	-0.3499293474645758	-0.2264251513605906	1.9336434443414816	-0.26189469328859993	-0.21559117572747777	1.9846454492341457	-0.24907353405841717	-0.1694009888790326	1.9697490666851345	-0.5048900057397293	-0.1423847257272499	1.9506433828286618	-0.6204273991431695	-0.16907118230967313	2.002451945197309	-0.6360036120191858
58	1.9333333333333333	-0.19739548716490016	1.8454027480794772	-0.44438468674242926	-0.2114339751164994	1.8435584252763184	-0.38718281905144375																-0.18514156126757467	1.847585334139872	-0.49420648987744464	-0.19176191744649446	1.7268625308430852	-0.47146896989366943													-0.1870728654200599	1.9664241505831106	-0.4284557714080814	-0.19204835592693184	2.020704715665966	-0.44046732351965423	-0.20148548002920638	1.9660050583925281	-0.3487760573166972	-0.22484704285409932	1.927778678540676	-0.24801113842984207	-0.22800380980388707	1.9618490236243769	-0.19247834241908365	-0.1686170896997896	1.966967139601034	-0.5012200762860853	-0.14157449071776715	1.940143519494365	-0.6155228633362025	-1.4103237507889357	1.8889753143736723	0.6956797897745818
59	1.9666666666666666	-0.19758708322282273	1.8390965389303426	-0.43826256393559476	-0.21062824130825414	1.8371719349722033	-0.38621367852786054																-0.18451017152918753	1.843128309700333	-0.4935320002163582	-0.19128465701791875	1.7272400496916043	-0.46972456357240344													-0.1881336958580014	1.9690780148141862	-0.42364016877254573	-0.19318736221285215	2.024647308450984	-0.43664463946912235	-0.20256667668590608	1.967261202736929	-0.34425713057709173	-0.22436545587582976	1.9167308058539136	-0.23718654123221702	-0.22846060853021843	1.9382363114075511	-0.1462278926928112	-0.16915669873088898	1.9689060471957287	-0.4936123622808438	-0.13661581419056315	1.9318395308925833	-0.5951808738876032	-1.1968727416917018	1.8898797743097666	0.4647785839750618
60	2.0	-0.199664215897125	1.8384534279215934	-0.43552041275725834	-0.21183798277424337	1.8362821179844007	-0.38012254961520825																-0.18566142418662643	1.8417737204260316	-0.4878543492276997	-0.19080739658934304	1.7276175685401232	-0.46798015725113745													-0.18917782740384095	1.967835443528121	-0.4182672940221515	-0.1949382430393189	2.025807889244979	-0.4342533226085889	-0.20261067844200495	1.9672966530532876	-0.3440790549382785	-0.2252165238497538	1.9123116903499082	-0.23105694882704914	-0.235325676205468	1.9176667388794388	-0.11365403113513703	-0.17107638834034886	1.9690575569241993	-0.49146402479366574	-0.1425459278200526	1.924209421242236	-0.5841597498334805	-0.9834217325944676	1.890784234245861	0.23387737817554172
61	2.033333333333333	-0.20054446549326738	1.8402185576855015	-0.43019405750203626	-0.20982319308333935	1.8390187180366793	-0.37365678648109746																-0.1876548266624644	1.8415493286480815	-0.48550037749341535	-0.19271691079538766	1.7268025169943977	-0.4657744762790417													-0.1889887212434117	1.9686715515382778	-0.40939413465707647	-0.19588950372586247	2.024484939631888	-0.4281606427002755	-0.20520292262337736	1.9671667813676537	-0.3363817877420135	-0.22699422907617423	1.9099919424908518	-0.22814352183534445	-0.24251780553814786	1.9004505458913998	-0.0965966347086929	-0.17293691484228219	1.9699615407517106	-0.48897691506411656	-0.14922376099270748	1.9225966773389196	-0.577457298018948	-0.7699707234972337	1.8916886941819553	0.0029761723760216574
62	2.066666666666667	-0.20080829878023398	1.8442835788703722	-0.42154802769330124	-0.2086985509527467	1.8401603749095483	-0.3614730908365174																-0.1896562057603128	1.844600445571688	-0.48342453540715946	-0.19481023314098037	1.7293549107983932	-0.46389100510485975													-0.18989960887926718	1.9697828155442145	-0.40388574845236513	-0.19852443438625364	2.0241382691933363	-0.41996253733927086	-0.20775573099443279	1.9682420319001321	-0.3287654194079929	-0.22554832597826313	1.909865546735448	-0.23077059670325262	-0.24856450488592247	1.887634302886314	-0.10729735434502269	-0.17480603205791476	1.9712720242562063	-0.4867023209712504	-0.15137679613806262	1.920321226610498	-0.5745570558413661	-0.5565197143999997	1.8925931541180494	-0.22792503342349835
63	2.1	-0.20379738797538896	1.8442534942357993	-0.41364739072990886	-0.2134041976780052	1.8389966873738346	-0.35150090182156213																-0.19575508336525344	1.8421508466309737	-0.47624450388354517	-0.1978258038148193	1.7299337976026425	-0.46504267295278173													-0.19371796041411934	1.969439718982333	-0.3992874705729852	-0.20333719514871662	2.0222502760079224	-0.40965386375528695	-0.21040167945511928	1.9678952909123257	-0.32107999217154587	-0.23034897789624922	1.9082777527742905	-0.22988448762333022	-0.25461120423369704	1.8748180598812285	-0.11799807398135247	-0.1779241985422038	1.9707813128309364	-0.47906138946720617	-0.1576535383817566	1.9203017049618378	-0.567755742778679	-0.3430687053027657	1.8934976140541437	-0.45882623922301835
64	2.1333333333333333	-0.2095916627206098	1.8406633147565827	-0.40649365688872974	-0.22090577583131843	1.8365038733906085	-0.3422344620786444																-0.1999307178735097	1.843731564524844	-0.4717759348264216	-0.20094152943811908	1.728855134557291	-0.46141252816707035													-0.2003046918999939	1.9686699338502445	-0.3871000557379181	-0.21112865553476007	2.021056974425062	-0.400768169430605	-0.2129553975548852	1.963507064049553	-0.30399447309715194	-0.23770359488588869	1.9035342268096167	-0.2206225134558282	-0.26418370607556774	1.8661488547170784	-0.12087659800003	-0.1837240183518316	1.9721536735319913	-0.4719610481071401	-0.16496605351470223	1.9205855956929736	-0.5552568353895974	-0.12961769620553165	1.894402073990238	-0.6897274450225386
65	2.1666666666666665	-0.21309682442765068	1.8454146324034852	-0.4083204523739428	-0.22158178366644563	1.8423454538483195	-0.3430929277698684																-0.2023954138992556	1.8478846808745906	-0.4702586423471689	-0.20405725506141886	1.727776471511939	-0.457782383381359													-0.20049285049240564	1.9674914006587343	-0.38690601012118836	-0.2150876644877037	2.0208698368564257	-0.3968746002328576	-0.21477001170978202	1.9633864367823393	-0.3016846158520541	-0.2369294459254326	1.9051791274783705	-0.22600144918055223	-0.2609844490397974	1.8633594527490462	-0.12442995384879997	-0.18497432031863956	1.9720238835617034	-0.4670159180015055	-0.16691069058544925	1.9211305806424037	-0.5528595925974211	-0.13307602964420556	1.8851555494000136	-0.6571655098366941
66	2.2	-0.21447178952618348	1.8395173980896333	-0.4052185263463205	-0.22390703181690363	1.834410988219596	-0.3429569015554421																-0.20385736362771034	1.8414455549942543	-0.4671187141481291	-0.20405725506141886	1.727776471511939	-0.457782383381359													-0.20434811558728425	1.9663448352081818	-0.3824911058082702	-0.21396376037027767	2.0205593250757476	-0.39314596094368454	-0.21837108504346392	1.9632875587693899	-0.29746988828948434	-0.23817292727906664	1.9032524410809306	-0.22896212228464252	-0.26004940129863074	1.8613562343792347	-0.13504305350702703	-0.18700699441203789	1.9721490173863785	-0.46463631095409363	-0.1709678276636869	1.9220352711454372	-0.5482641720631434	-0.13969580462730674	1.880242131763664	-0.6491571884788587
